HIERARCHY
ROOT Hips
{
	OFFSET 0.000000 0.000000 0.000000 
	CHANNELS 6 Xposition Yposition Zposition Yrotation Zrotation Xrotation 
	JOINT Lumbar
	{
		OFFSET 0.000000 0.000000 0.000000 
		CHANNELS 3 Zrotation Xrotation Yrotation
		JOINT Neck
		{
			OFFSET 0.000000 0.445665 0.000000 
			CHANNELS 3 Zrotation Xrotation Yrotation
			End Site
			{
				OFFSET 0.000000 0.227535 0.000000 
			}
		}
		JOINT RightShoulder
		{
			OFFSET 0.019635 0.377685 0.194865 
			CHANNELS 3 Zrotation Xrotation Yrotation
			JOINT RightElbow
			{
				OFFSET 0.000000 -0.243375 0.000000 
				CHANNELS 2 Zrotation Yrotation
				JOINT RightWrist
				{
					OFFSET 0.000000 -0.264825 0.000000 
					CHANNELS 2 Zrotation Xrotation
					End Site
					{
						OFFSET 0.006600 -0.176220 0.000990 
					}
				}
			}
		}
		JOINT LeftShoulder
		{
			OFFSET 0.019635 0.377685 -0.194865 
			CHANNELS 3 Zrotation Xrotation Yrotation
			JOINT LeftElbow
			{
				OFFSET 0.000000 -0.243375 0.000000 
				CHANNELS 2 Zrotation Yrotation
				JOINT LeftWrist
				{
					OFFSET 0.000000 -0.264825 0.000000 
					CHANNELS 2 Zrotation Xrotation
					End Site
					{
						OFFSET 0.006600 -0.176220 -0.000990 
					}
				}
			}
		}
	}
	JOINT RightHip
	{
		OFFSET 0.052140 -0.069960 0.075570 
		CHANNELS 3 Zrotation Xrotation Yrotation
		JOINT RightKnee
		{
			OFFSET 0.000000 -0.402270 0.000000 
			CHANNELS 1 Zrotation
			JOINT RightAnkle
			{
				OFFSET 0.000000 -0.404085 0.000000 
				CHANNELS 3 Zrotation Xrotation Yrotation
				End Site
				{
					OFFSET 0.204105 -0.089430 0.008415 
				}
			}
		}
	}
	JOINT LeftHip
	{
		OFFSET 0.052140 -0.069960 -0.075570 
		CHANNELS 3 Zrotation Xrotation Yrotation
		JOINT LeftKnee
		{
			OFFSET 0.000000 -0.402270 0.000000 
			CHANNELS 1 Zrotation
			JOINT LeftAnkle
			{
				OFFSET 0.000000 -0.404085 0.000000 
				CHANNELS 3 Zrotation Xrotation Yrotation
				End Site
				{
					OFFSET 0.204105 -0.089430 -0.008415 
				}
			}
		}
	}
}
MOTION
Frames: 26
Frame Time: 0.02
0.04633 0.94764 -0.07096 169.09844 0 -3.45845 -6.74599 10.07387 -7.9618 -20.8423 8.27045 5.59014 26.5371 -35.85998 31.8544 33.3199 100.22896 -14.40626 -8.00579 19.49715 11.48726 -20.89077 19.8347 -84.0527 -10.65843 4.93862 0.57191 8.14368 0.04646 -6.83399 -2.04577 -1.48681 0.12374 7.37336 9.70221 4.52997 -25.52314 10.49824 3.96366 3.22034
0.04628 0.94797 -0.06646 168.90883 0 -3.4807 -7.01351 10.27835 -7.70154 -20.62238 8.16022 5.62225 27.21646 -35.08273 32.05525 31.55255 100.6278 -14.30363 -8.12635 19.43031 11.51862 -21.38744 19.87487 -84.03891 -10.66441 4.94065 0.51488 7.91706 0.04693 -6.60457 -2.19227 -1.46738 0.24169 7.2395 9.45073 3.64164 -25.13171 10.53348 3.9236 3.1689
0.04613 0.94826 -0.06151 168.76706 0 -3.51525 -7.29348 10.48771 -7.45402 -20.3672 8.07917 5.63288 27.72741 -34.25599 31.8979 29.84804 100.6892 -14.0633 -8.18323 19.33297 11.5427 -21.84662 19.9194 -84.00071 -10.6785 4.96099 0.43833 7.68323 0.06636 -6.34132 -2.35575 -1.46619 0.28941 7.04127 9.15524 2.69488 -24.56033 10.50531 3.94176 3.27107
0.04604 0.94858 -0.05672 168.60405 0 -3.54402 -7.57221 10.69099 -7.20224 -20.12389 7.99257 5.65329 28.30434 -33.46373 31.90103 28.13251 100.85178 -13.86551 -8.25926 19.2497 11.56496 -22.33112 19.95598 -83.97429 -10.68252 4.9732 0.37683 7.45112 0.08219 -6.10275 -2.50931 -1.45719 0.36415 6.87278 8.88159 1.81545 -24.0731 10.50228 3.92551 3.29064
0.04588 0.94889 -0.05209 168.43931 0 -3.5734 -7.83027 10.91114 -6.94378 -19.90284 7.87404 5.67406 28.93444 -32.61737 31.91457 26.33115 101.23765 -13.75164 -8.37763 19.1684 11.60775 -22.78099 20.01784 -83.94467 -10.71198 4.9849 0.28654 7.22504 0.0792 -5.82088 -2.67316 -1.44667 0.45616 6.70003 8.60016 0.76336 -23.57244 10.51573 3.93866 3.35665
0.04585 0.94919 -0.04704 168.28911 0 -3.60411 -8.13704 11.09609 -6.70224 -19.62227 7.82874 5.68839 29.40819 -31.87279 31.82222 24.72907 101.08138 -13.43342 -8.39271 19.07302 11.60705 -23.29437 20.02815 -83.91638 -10.69225 5.00185 0.25411 6.98464 0.11971 -5.62443 -2.8195 -1.44359 0.49608 6.52199 8.32386 0.05667 -23.05782 10.47896 3.90629 3.36569
0.04613 0.94943 -0.041 168.17095 0 -3.64032 -8.55168 11.19514 -6.50438 -19.22264 7.9777 5.69447 29.5192 -31.42755 31.51209 23.65044 99.46015 -12.54935 -8.13364 18.96729 11.48106 -23.98672 19.89403 -83.89344 -10.51892 5.02944 0.36789 6.7094 0.26564 -5.65074 -2.90977 -1.45463 0.41995 6.34199 8.08026 0.32471 -22.55544 10.32503 3.73069 3.17563
0.04657 0.94965 -0.03456 168.06521 0 -3.67666 -9.01933 11.25649 -6.32227 -18.75738 8.19914 5.69334 29.47236 -31.086 31.11061 22.77473 97.31502 -11.47111 -7.77397 18.84494 11.31289 -24.74486 19.70829 -83.87357 -10.29887 5.06151 0.54408 6.41945 0.45516 -5.76837 -2.9821 -1.47264 0.29346 6.15995 7.84198 0.94087 -22.0449 10.12176 3.50865 2.92508
0.047 0.94988 -0.02828 167.95131 0 -3.7098 -9.47809 11.32681 -6.13404 -18.29783 8.38813 5.69354 29.47907 -30.69329 30.75831 21.81405 95.43945 -10.50379 -7.46242 18.71552 11.16869 -25.47687 19.54649 -83.85491 -10.11042 5.0911 0.70393 6.13458 0.63211 -5.85865 -3.06505 -1.48884 0.18242 5.98088 7.59635 1.39402 -21.53379 9.93685 3.31028 2.70555
0.04715 0.95009 -0.02207 167.84926 0 -3.75646 -9.87294 11.43115 -5.94546 -17.93852 8.57709 5.70396 29.55794 -30.31525 30.35831 20.82121 93.41213 -9.43369 -7.13638 18.64446 11.00407 -26.19311 19.38176 -83.8239 -9.87803 5.12324 0.81258 5.8567 0.78319 -5.88838 -3.13905 -1.50062 0.09611 5.79005 7.37012 1.8672 -21.03289 9.76615 3.10211 2.47489
0.04791 0.95034 -0.01562 167.7254 0 -3.775 -10.41354 11.45637 -5.75667 -17.35577 8.78169 5.68824 29.44978 -29.93264 30.04423 19.94725 91.58995 -8.53618 -6.82015 18.45122 10.8719 -26.95649 19.21215 -83.82028 -9.72654 5.15084 1.04267 5.56025 0.99323 -6.06585 -3.22613 -1.52217 -0.04757 5.62515 7.10514 2.37983 -20.51304 9.55591 2.90377 2.25287
0.05034 0.95076 -0.00866 167.53279 0 -3.71439 -11.34125 11.26576 -5.60302 -16.16963 9.0226 5.63341 28.87709 -29.50688 29.95862 19.31302 90.38304 -8.13864 -6.53199 17.89984 10.84027 -27.84997 19.03116 -83.88832 -9.80659 5.16513 1.59579 5.22137 1.39809 -6.63413 -3.36301 -1.57605 -0.3809 5.52311 6.73365 2.93785 -19.92704 9.2406 2.73319 2.05292
0.05338 0.95121 -0.00148 167.31812 0 -3.62564 -12.4137 10.99792 -5.44191 -14.76275 9.27466 5.54816 28.12062 -29.07446 29.96887 18.79774 89.41532 -7.9263 -6.2614 17.23109 10.84216 -28.78592 18.84965 -83.98595 -9.97131 5.17459 2.26866 4.86328 1.85255 -7.34737 -3.5119 -1.63803 -0.76159 5.4489 6.32291 3.52098 -19.32566 8.88894 2.57556 1.86554
0.05615 0.95162 0.0056 167.11754 0 -3.5508 -13.42198 10.76991 -5.25727 -13.45715 9.51423 5.45473 27.43957 -28.64839 29.95923 18.2541 88.39418 -7.64619 -5.99924 16.63226 10.82897 -29.69199 18.67447 -84.0705 -10.09806 5.18584 2.88473 4.5107 2.25641 -7.99076 -3.6491 -1.69164 -1.09184 5.36888 5.92916 4.07727 -18.74319 8.55959 2.41911 1.68323
0.05891 0.95214 0.01268 166.90224 0 -3.47152 -14.42734 10.52117 -5.1838 -12.14011 9.78733 5.44839 26.78443 -28.2107 29.85191 17.61189 87.12875 -7.29161 -5.66631 15.96194 10.81575 -30.6446 18.46912 -84.14781 -10.21674 5.19872 3.51252 4.17157 2.7809 -8.6532 -3.81187 -1.76556 -1.54656 5.26156 5.53901 4.70604 -18.11187 8.2044 2.23235 1.45567
0.06181 0.95245 0.01982 166.70973 0 -3.39443 -15.46995 10.29706 -4.88061 -10.80169 9.99275 5.26049 26.03708 -27.79576 29.9649 17.19706 86.42628 -7.13665 -5.48367 15.41395 10.80846 -31.51001 18.33046 -84.25443 -10.37833 5.20731 4.14415 3.79958 3.06457 -9.3103 -3.92462 -1.79867 -1.75189 5.21566 5.13213 5.19125 -17.57642 7.89457 2.111 1.32327
0.06505 0.95218 0.0271 166.60634 0 -3.33351 -16.60027 10.16625 -3.91165 -9.40497 10.00356 4.51818 25.053 -27.43186 30.72188 17.4103 87.30548 -7.5062 -5.73507 15.22343 10.83269 -32.12065 18.34802 -84.37122 -10.59081 5.20261 4.7518 3.34565 2.67638 -9.90804 -3.89497 -1.72036 -1.26348 5.35046 4.68734 5.21997 -17.33015 7.72352 2.17959 1.47597
0.06839 0.95171 0.03442 166.52264 0 -3.27519 -17.75837 10.06218 -2.71763 -8.00517 9.9461 3.60508 23.98863 -27.09273 31.68457 17.84158 88.73001 -8.06777 -6.13342 15.16178 10.85797 -32.64311 18.43809 -84.52709 -10.85176 5.19422 5.36005 2.8586 2.04238 -10.49712 -3.81494 -1.60023 -0.52172 5.54275 4.22726 5.11089 -17.17725 7.5989 2.31173 1.72016
0.07162 0.95134 0.04171 166.41631 0 -3.2135 -18.89105 9.94154 -1.6487 -6.64137 9.92322 2.81043 22.97923 -26.75094 32.51757 18.1531 89.85096 -8.53019 -6.44953 15.04721 10.86713 -33.20707 18.51379 -84.70831 -11.12251 5.18925 5.97089 2.3841 1.51792 -11.09508 -3.75889 -1.49688 0.10952 5.69703 3.77507 5.09951 -16.96785 7.45012 2.40646 1.90535
0.07513 0.95092 0.04907 166.36722 0 -3.15991 -20.08559 9.83571 -0.48429 -5.12152 9.88712 1.84415 21.88412 -26.37407 33.51556 18.55702 91.21387 -9.04911 -6.83088 14.90496 10.94183 -33.76365 18.51154 -84.71372 -11.26507 5.17682 6.573 1.9195 1.00659 -11.67535 -3.69849 -1.40252 0.72263 5.90258 3.31767 4.94433 -16.81658 7.31246 2.53649 2.16202
0.07808 0.95055 0.05629 166.20354 0 -3.09065 -21.15251 9.70779 0.53592 -3.93167 9.86048 1.19291 20.95237 -26.07452 34.20638 18.81763 92.20106 -9.49359 -7.11175 14.85217 10.88193 -34.31775 18.68819 -85.08775 -11.68096 5.17904 7.19297 1.42666 0.40613 -12.29091 -3.63524 -1.28029 1.43048 6.01446 2.8678 5.05157 -16.5675 7.16373 2.60932 2.2945
0.07955 0.95035 0.06316 165.7224 0 -2.97565 -21.88788 9.5015 1.09064 -3.63176 9.89074 1.47318 20.47984 -25.99703 34.09471 18.63765 92.00133 -9.68424 -7.07312 15.0178 10.43308 -34.85342 19.34883 -86.52345 -12.87229 5.22359 7.85135 0.86379 -0.3562 -12.98429 -3.57448 -1.08335 2.37104 5.85485 2.44429 5.95043 -16.01821 6.96847 2.49652 2.03448
0.08044 0.95019 0.06988 165.12537 0 -2.84524 -22.48719 9.27495 1.49406 -3.66963 9.92992 2.0727 20.17769 -25.99388 33.64935 18.30402 91.40658 -9.79247 -6.92938 15.26858 9.85249 -35.39454 20.18663 -88.31723 -14.32893 5.28308 8.52856 0.2736 -1.20379 -13.71654 -3.51283 -0.86119 3.39236 5.5986 2.0287 7.11134 -15.36888 6.76168 2.32606 1.65107
0.08153 0.95001 0.07664 164.57813 0 -2.72331 -23.13088 9.06456 1.97557 -3.56798 9.95606 2.51345 19.80585 -25.94702 33.2921 18.03418 91.00195 -9.93865 -6.83766 15.47971 9.34232 -35.95604 20.93693 -89.91372 -15.64432 5.33484 9.20427 -0.30368 -2.02928 -14.44485 -3.45291 -0.65577 4.3551 5.38568 1.60854 8.13078 -14.76998 6.56315 2.19008 1.34229
0.0829 0.94984 0.08351 164.04079 0 -2.59541 -23.85243 8.82373 2.42824 -3.40566 10.01887 3.00666 19.39791 -25.94258 33.20646 17.79632 90.57145 -10.09041 -6.73302 15.70134 8.78468 -36.42234 21.71493 -91.66334 -17.05523 5.38949 9.85244 -0.88357 -2.79589 -15.11608 -3.38593 -0.42675 5.41858 5.17736 1.1921 9.24158 -14.15262 6.35276 2.02191 0.9595
0.08353 0.94965 0.09011 163.45872 0 -2.476 -24.3752 8.64362 2.89875 -3.45174 10.00691 3.46781 19.1073 -25.86755 32.47805 17.45402 90.09427 -10.20736 -6.62854 15.91705 8.29834 -37.08392 22.48175 -93.17122 -18.32144 5.4429 10.55973 -1.46488 -3.6986 -15.91418 -3.33376 -0.24129 6.28867 4.93563 0.76976 10.22406 -13.54967 6.16462 1.90562 0.69894
